<svg xmlns="http://www.w3.org/2000/svg" viewBox="0 0 24 24"><defs><linearGradient id="g2" x1="0" x2="1"><stop offset="0" stop-color="#00fff0"/><stop offset="1" stop-color="#ff00aa"/></linearGradient></defs><path fill="url(#g2)" d="M12 .5C5.65.5.75 5.4.75 11.75c0 4.85 3.14 8.96 7.5 10.42.55.1.75-.24.75-.53v-1.86c-3.05.66-3.69-1.47-3.69-1.47-.5-1.28-1.22-1.62-1.22-1.62-.99-.68.08-.67.08-.67 1.1.08 1.68 1.14 1.68 1.14.98 1.68 2.57 1.2 3.19.92.1-.72.38-1.2.69-1.48-2.44-.28-5-1.22-5-5.42 0-1.2.43-2.18 1.15-2.95-.12-.28-.5-1.4.11-2.92 0 0 .95-.3 3.12 1.14.9-.25 1.86-.38 2.82-.38s1.92.13 2.82.38c2.17-1.44 3.12-1.14 3.12-1.14.61 1.52.23 2.64.11 2.92.72.77 1.15 1.75 1.15 2.95 0 4.2-2.56 5.14-5 5.42.39.34.74 1.01.74 2.04v3.02c0 .29.2.64.76.53 4.36-1.46 7.5-5.57 7.5-10.42C23.25 5.4 18.35.5 12 .5z"/></svg>